<mxfile host="app.diagrams.net" modified="2022-10-25T06:40:52.862Z" agent="5.0 (Windows NT 10.0; Win64; x64) AppleWebKit/537.36 (KHTML, like Gecko) Chrome/106.0.0.0 Safari/537.36" etag="5jdYP-GIf9GZ55VDvSVx" version="20.5.1" type="github">
  <diagram id="PAe3UoUXBNtSbx9W9z1V" name="Page-1">
    <mxGraphModel dx="782" dy="1568" grid="1" gridSize="10" guides="1" tooltips="1" connect="1" arrows="1" fold="1" page="1" pageScale="1" pageWidth="850" pageHeight="1100" math="0" shadow="0">
      <root>
        <mxCell id="0" />
        <mxCell id="1" parent="0" />
        <mxCell id="-Ta_05bqoG0xjYSXqe8Y-1" value="Transaction Records" style="rounded=0;whiteSpace=wrap;html=1;" vertex="1" parent="1">
          <mxGeometry x="340" y="50" width="120" height="60" as="geometry" />
        </mxCell>
        <mxCell id="-Ta_05bqoG0xjYSXqe8Y-9" style="edgeStyle=none;rounded=0;orthogonalLoop=1;jettySize=auto;html=1;entryX=0.5;entryY=0;entryDx=0;entryDy=0;endArrow=none;endFill=0;" edge="1" parent="1" source="-Ta_05bqoG0xjYSXqe8Y-2" target="-Ta_05bqoG0xjYSXqe8Y-1">
          <mxGeometry relative="1" as="geometry" />
        </mxCell>
        <mxCell id="-Ta_05bqoG0xjYSXqe8Y-2" value="Transaction ID" style="ellipse;whiteSpace=wrap;html=1;" vertex="1" parent="1">
          <mxGeometry x="180" y="-20" width="120" height="80" as="geometry" />
        </mxCell>
        <mxCell id="-Ta_05bqoG0xjYSXqe8Y-6" style="rounded=0;orthogonalLoop=1;jettySize=auto;html=1;endArrow=none;endFill=0;" edge="1" parent="1" source="-Ta_05bqoG0xjYSXqe8Y-3">
          <mxGeometry relative="1" as="geometry">
            <mxPoint x="400" y="50" as="targetPoint" />
          </mxGeometry>
        </mxCell>
        <mxCell id="-Ta_05bqoG0xjYSXqe8Y-3" value="Part ID" style="ellipse;whiteSpace=wrap;html=1;" vertex="1" parent="1">
          <mxGeometry x="260" y="-100" width="120" height="80" as="geometry" />
        </mxCell>
        <mxCell id="-Ta_05bqoG0xjYSXqe8Y-10" style="edgeStyle=none;rounded=0;orthogonalLoop=1;jettySize=auto;html=1;entryX=0.5;entryY=0;entryDx=0;entryDy=0;endArrow=none;endFill=0;" edge="1" parent="1" source="-Ta_05bqoG0xjYSXqe8Y-4" target="-Ta_05bqoG0xjYSXqe8Y-1">
          <mxGeometry relative="1" as="geometry" />
        </mxCell>
        <mxCell id="-Ta_05bqoG0xjYSXqe8Y-4" value="Salesperson ID" style="ellipse;whiteSpace=wrap;html=1;" vertex="1" parent="1">
          <mxGeometry x="425" y="-100" width="120" height="80" as="geometry" />
        </mxCell>
        <mxCell id="-Ta_05bqoG0xjYSXqe8Y-13" style="edgeStyle=none;rounded=0;orthogonalLoop=1;jettySize=auto;html=1;entryX=0.5;entryY=0;entryDx=0;entryDy=0;endArrow=none;endFill=0;" edge="1" parent="1" source="-Ta_05bqoG0xjYSXqe8Y-5" target="-Ta_05bqoG0xjYSXqe8Y-1">
          <mxGeometry relative="1" as="geometry" />
        </mxCell>
        <mxCell id="-Ta_05bqoG0xjYSXqe8Y-5" value="Transaction Date" style="ellipse;whiteSpace=wrap;html=1;" vertex="1" parent="1">
          <mxGeometry x="510" y="-20" width="120" height="80" as="geometry" />
        </mxCell>
      </root>
    </mxGraphModel>
  </diagram>
</mxfile>
